{
    "asset" : {
        "generator" : "Khronos glTF Blender I/O v0.9.36",
        "version" : "2.0"
    },
    "scene" : 0,
    "scenes" : [
        {
            "name" : "Scene",
            "nodes" : [
                1
            ]
        }
    ],
    "nodes" : [
        {
            "mesh" : 0,
            "name" : "makerbot_parts_04",
            "translation" : [
                -2163.67822265625,
                -33.10009765625,
                3461.026611328125
            ]
        },
        {
            "children" : [
                0
            ],
            "name" : "makerbot_group",
            "scale" : [
                0.0003737099759746343,
                0.0003737099759746343,
                0.0003737099759746343
            ],
            "translation" : [
                0,
                0.37806475162506104,
                0
            ]
        }
    ],
    "materials" : [
        {
            "doubleSided" : true,
            "name" : "BlackPlastic",
            "pbrMetallicRoughness" : {
                "baseColorFactor" : [
                    0,
                    0,
                    0,
                    1
                ],
                "metallicFactor" : 0,
                "roughnessFactor" : 1
            }
        },
        {
            "doubleSided" : true,
            "name" : "Metal1",
            "pbrMetallicRoughness" : {
                "baseColorFactor" : [
                    0.06641372293233871,
                    0.06641372293233871,
                    0.06641372293233871,
                    1
                ],
                "metallicFactor" : 0,
                "roughnessFactor" : 1
            }
        },
        {
            "doubleSided" : true,
            "name" : "BlackMetal",
            "pbrMetallicRoughness" : {
                "baseColorFactor" : [
                    0,
                    0,
                    0,
                    1
                ],
                "metallicFactor" : 0,
                "roughnessFactor" : 1
            }
        },
        {
            "doubleSided" : true,
            "name" : "YellowPlastic",
            "pbrMetallicRoughness" : {
                "baseColorFactor" : [
                    0.8000000715255737,
                    0.3954342007637024,
                    0.05902428179979324,
                    1
                ],
                "metallicFactor" : 0,
                "roughnessFactor" : 1
            }
        },
        {
            "doubleSided" : true,
            "name" : "GreenPlastic",
            "pbrMetallicRoughness" : {
                "baseColorFactor" : [
                    0.001050000311806798,
                    0.8000000715255737,
                    0.0014226904604583979,
                    1
                ],
                "metallicFactor" : 0,
                "roughnessFactor" : 1
            }
        },
        {
            "doubleSided" : true,
            "name" : "Control",
            "pbrMetallicRoughness" : {
                "baseColorFactor" : [
                    0,
                    0,
                    0,
                    1
                ],
                "metallicFactor" : 0,
                "roughnessFactor" : 0.5054545402526855
            }
        },
        {
            "doubleSided" : true,
            "name" : "Screen",
            "pbrMetallicRoughness" : {
                "baseColorFactor" : [
                    0,
                    0.6139640212059021,
                    0.8000000715255737,
                    1
                ],
                "metallicFactor" : 0,
                "roughnessFactor" : 0.5
            }
        }
    ],
    "meshes" : [
        {
            "name" : "Mesh.138",
            "primitives" : [
                {
                    "attributes" : {
                        "POSITION" : 0,
                        "NORMAL" : 1,
                        "TEXCOORD_0" : 2
                    },
                    "indices" : 3,
                    "material" : 0
                },
                {
                    "attributes" : {
                        "POSITION" : 4,
                        "NORMAL" : 5,
                        "TEXCOORD_0" : 6
                    },
                    "indices" : 7,
                    "material" : 1
                },
                {
                    "attributes" : {
                        "POSITION" : 8,
                        "NORMAL" : 9,
                        "TEXCOORD_0" : 10
                    },
                    "indices" : 11,
                    "material" : 2
                },
                {
                    "attributes" : {
                        "POSITION" : 12,
                        "NORMAL" : 13,
                        "TEXCOORD_0" : 14
                    },
                    "indices" : 15,
                    "material" : 3
                },
                {
                    "attributes" : {
                        "POSITION" : 16,
                        "NORMAL" : 17,
                        "TEXCOORD_0" : 18
                    },
                    "indices" : 19,
                    "material" : 4
                },
                {
                    "attributes" : {
                        "POSITION" : 20,
                        "NORMAL" : 21,
                        "TEXCOORD_0" : 22
                    },
                    "indices" : 23,
                    "material" : 5
                },
                {
                    "attributes" : {
                        "POSITION" : 24,
                        "NORMAL" : 25,
                        "TEXCOORD_0" : 26
                    },
                    "indices" : 27,
                    "material" : 6
                }
            ]
        }
    ],
    "accessors" : [
        {
            "bufferView" : 0,
            "componentType" : 5126,
            "count" : 4087,
            "max" : [
                3117.924072265625,
                2047.576171875,
                -2073.47216796875
            ],
            "min" : [
                1194.9229736328125,
                69.03191375732422,
                -4352.619140625
            ],
            "type" : "VEC3"
        },
        {
            "bufferView" : 1,
            "componentType" : 5126,
            "count" : 4087,
            "type" : "VEC3"
        },
        {
            "bufferView" : 2,
            "componentType" : 5126,
            "count" : 4087,
            "type" : "VEC2"
        },
        {
            "bufferView" : 3,
            "componentType" : 5123,
            "count" : 13929,
            "type" : "SCALAR"
        },
        {
            "bufferView" : 4,
            "componentType" : 5126,
            "count" : 3576,
            "max" : [
                3074.57861328125,
                1470.267578125,
                -2123.70703125
            ],
            "min" : [
                1219.970703125,
                40.853424072265625,
                -4862.22021484375
            ],
            "type" : "VEC3"
        },
        {
            "bufferView" : 5,
            "componentType" : 5126,
            "count" : 3576,
            "type" : "VEC3"
        },
        {
            "bufferView" : 6,
            "componentType" : 5126,
            "count" : 3576,
            "type" : "VEC2"
        },
        {
            "bufferView" : 7,
            "componentType" : 5123,
            "count" : 16368,
            "type" : "SCALAR"
        },
        {
            "bufferView" : 8,
            "componentType" : 5126,
            "count" : 140,
            "max" : [
                2954.945556640625,
                602.155029296875,
                -2089.787841796875
            ],
            "min" : [
                2388.347900390625,
                125.02178955078125,
                -3521.841796875
            ],
            "type" : "VEC3"
        },
        {
            "bufferView" : 9,
            "componentType" : 5126,
            "count" : 140,
            "type" : "VEC3"
        },
        {
            "bufferView" : 10,
            "componentType" : 5126,
            "count" : 140,
            "type" : "VEC2"
        },
        {
            "bufferView" : 11,
            "componentType" : 5123,
            "count" : 471,
            "type" : "SCALAR"
        },
        {
            "bufferView" : 12,
            "componentType" : 5126,
            "count" : 468,
            "max" : [
                2760.33837890625,
                1121.871337890625,
                -3913.408447265625
            ],
            "min" : [
                2072.328125,
                340.96612548828125,
                -4694.09814453125
            ],
            "type" : "VEC3"
        },
        {
            "bufferView" : 13,
            "componentType" : 5126,
            "count" : 468,
            "type" : "VEC3"
        },
        {
            "bufferView" : 14,
            "componentType" : 5126,
            "count" : 468,
            "type" : "VEC2"
        },
        {
            "bufferView" : 15,
            "componentType" : 5123,
            "count" : 2658,
            "type" : "SCALAR"
        },
        {
            "bufferView" : 16,
            "componentType" : 5126,
            "count" : 10630,
            "max" : [
                2722.037109375,
                1968.853271484375,
                -2838.164306640625
            ],
            "min" : [
                2112.75048828125,
                343.6380615234375,
                -4691.60888671875
            ],
            "type" : "VEC3"
        },
        {
            "bufferView" : 17,
            "componentType" : 5126,
            "count" : 10630,
            "type" : "VEC3"
        },
        {
            "bufferView" : 18,
            "componentType" : 5126,
            "count" : 10630,
            "type" : "VEC2"
        },
        {
            "bufferView" : 19,
            "componentType" : 5123,
            "count" : 63462,
            "type" : "SCALAR"
        },
        {
            "bufferView" : 20,
            "componentType" : 5126,
            "count" : 80,
            "max" : [
                2861.72216796875,
                517.9376220703125,
                -2086.993896484375
            ],
            "min" : [
                2718.4140625,
                381.39990234375,
                -2106.3603515625
            ],
            "type" : "VEC3"
        },
        {
            "bufferView" : 21,
            "componentType" : 5126,
            "count" : 80,
            "type" : "VEC3"
        },
        {
            "bufferView" : 22,
            "componentType" : 5126,
            "count" : 80,
            "type" : "VEC2"
        },
        {
            "bufferView" : 23,
            "componentType" : 5123,
            "count" : 210,
            "type" : "SCALAR"
        },
        {
            "bufferView" : 24,
            "componentType" : 5126,
            "count" : 299,
            "max" : [
                2707.208984375,
                1595.01513671875,
                -2093.0869140625
            ],
            "min" : [
                2149.348876953125,
                388.0379333496094,
                -2987.826904296875
            ],
            "type" : "VEC3"
        },
        {
            "bufferView" : 25,
            "componentType" : 5126,
            "count" : 299,
            "type" : "VEC3"
        },
        {
            "bufferView" : 26,
            "componentType" : 5126,
            "count" : 299,
            "type" : "VEC2"
        },
        {
            "bufferView" : 27,
            "componentType" : 5123,
            "count" : 1272,
            "type" : "SCALAR"
        }
    ],
    "bufferViews" : [
        {
            "buffer" : 0,
            "byteLength" : 49044,
            "byteOffset" : 0
        },
        {
            "buffer" : 0,
            "byteLength" : 49044,
            "byteOffset" : 49044
        },
        {
            "buffer" : 0,
            "byteLength" : 32696,
            "byteOffset" : 98088
        },
        {
            "buffer" : 0,
            "byteLength" : 27858,
            "byteOffset" : 130784
        },
        {
            "buffer" : 0,
            "byteLength" : 42912,
            "byteOffset" : 158644
        },
        {
            "buffer" : 0,
            "byteLength" : 42912,
            "byteOffset" : 201556
        },
        {
            "buffer" : 0,
            "byteLength" : 28608,
            "byteOffset" : 244468
        },
        {
            "buffer" : 0,
            "byteLength" : 32736,
            "byteOffset" : 273076
        },
        {
            "buffer" : 0,
            "byteLength" : 1680,
            "byteOffset" : 305812
        },
        {
            "buffer" : 0,
            "byteLength" : 1680,
            "byteOffset" : 307492
        },
        {
            "buffer" : 0,
            "byteLength" : 1120,
            "byteOffset" : 309172
        },
        {
            "buffer" : 0,
            "byteLength" : 942,
            "byteOffset" : 310292
        },
        {
            "buffer" : 0,
            "byteLength" : 5616,
            "byteOffset" : 311236
        },
        {
            "buffer" : 0,
            "byteLength" : 5616,
            "byteOffset" : 316852
        },
        {
            "buffer" : 0,
            "byteLength" : 3744,
            "byteOffset" : 322468
        },
        {
            "buffer" : 0,
            "byteLength" : 5316,
            "byteOffset" : 326212
        },
        {
            "buffer" : 0,
            "byteLength" : 127560,
            "byteOffset" : 331528
        },
        {
            "buffer" : 0,
            "byteLength" : 127560,
            "byteOffset" : 459088
        },
        {
            "buffer" : 0,
            "byteLength" : 85040,
            "byteOffset" : 586648
        },
        {
            "buffer" : 0,
            "byteLength" : 126924,
            "byteOffset" : 671688
        },
        {
            "buffer" : 0,
            "byteLength" : 960,
            "byteOffset" : 798612
        },
        {
            "buffer" : 0,
            "byteLength" : 960,
            "byteOffset" : 799572
        },
        {
            "buffer" : 0,
            "byteLength" : 640,
            "byteOffset" : 800532
        },
        {
            "buffer" : 0,
            "byteLength" : 420,
            "byteOffset" : 801172
        },
        {
            "buffer" : 0,
            "byteLength" : 3588,
            "byteOffset" : 801592
        },
        {
            "buffer" : 0,
            "byteLength" : 3588,
            "byteOffset" : 805180
        },
        {
            "buffer" : 0,
            "byteLength" : 2392,
            "byteOffset" : 808768
        },
        {
            "buffer" : 0,
            "byteLength" : 2544,
            "byteOffset" : 811160
        }
    ],
    "buffers" : [
        {
            "byteLength" : 813704,
            "uri" : "data:application/octet-stream;base64,"
        }
    ]
}
