{
    "asset" : {
        "generator" : "Khronos glTF Blender I/O v0.9.36",
        "version" : "2.0"
    },
    "scene" : 0,
    "scenes" : [
        {
            "name" : "Scene",
            "nodes" : [
                0
            ]
        }
    ],
    "nodes" : [
        {
            "mesh" : 0,
            "name" : "Shelf",
            "rotation" : [
                0.7071067690849304,
                0,
                0.7071067690849304,
                3.793077141267531e-08
            ],
            "scale" : [
                -0.04099991172552109,
                -0.04099991172552109,
                -0.04099991172552109
            ],
            "translation" : [
                0,
                0,
                -5.195943832397461
            ]
        }
    ],
    "materials" : [
        {
            "doubleSided" : true,
            "name" : "Shelf.001",
            "pbrMetallicRoughness" : {
                "baseColorFactor" : [
                    0.08973906934261322,
                    0.08973906934261322,
                    0.08973906934261322,
                    1
                ],
                "metallicFactor" : 0,
                "roughnessFactor" : 0.32133254408836365
            }
        }
    ],
    "meshes" : [
        {
            "name" : "Mesh.069",
            "primitives" : [
                {
                    "attributes" : {
                        "POSITION" : 0,
                        "NORMAL" : 1
                    },
                    "indices" : 2,
                    "material" : 0
                }
            ]
        }
    ],
    "accessors" : [
        {
            "bufferView" : 0,
            "componentType" : 5126,
            "count" : 3563,
            "max" : [
                28.532852172851562,
                200.00001525878906,
                2.5000815391540527
            ],
            "min" : [
                -2.5000972747802734,
                -9.209630661644042e-06,
                -98.60045623779297
            ],
            "type" : "VEC3"
        },
        {
            "bufferView" : 1,
            "componentType" : 5126,
            "count" : 3563,
            "type" : "VEC3"
        },
        {
            "bufferView" : 2,
            "componentType" : 5123,
            "count" : 9480,
            "type" : "SCALAR"
        }
    ],
    "bufferViews" : [
        {
            "buffer" : 0,
            "byteLength" : 42756,
            "byteOffset" : 0
        },
        {
            "buffer" : 0,
            "byteLength" : 42756,
            "byteOffset" : 42756
        },
        {
            "buffer" : 0,
            "byteLength" : 18960,
            "byteOffset" : 85512
        }
    ],
    "buffers" : [
        {
            "byteLength" : 104472,
            "uri" : "data:application/octet-stream;base64,"
        }
    ]
}
