{
    "asset" : {
        "generator" : "Khronos glTF Blender I/O v0.9.36",
        "version" : "2.0"
    },
    "scene" : 0,
    "scenes" : [
        {
            "name" : "Scene",
            "nodes" : [
                0
            ]
        }
    ],
    "nodes" : [
        {
            "mesh" : 0,
            "name" : "Rectangle07.001",
            "rotation" : [
                0.7071067690849304,
                0,
                0.7071067690849304,
                3.793077141267531e-08
            ],
            "scale" : [
                -0.04099991172552109,
                -0.04099991172552109,
                -0.04099991172552109
            ],
            "translation" : [
                0,
                0,
                -5.195943832397461
            ]
        }
    ],
    "materials" : [
        {
            "doubleSided" : true,
            "name" : "Shelf.001",
            "pbrMetallicRoughness" : {
                "baseColorFactor" : [
                    0.8235294818878174,
                    0.8235294818878174,
                    0.8235294818878174,
                    1
                ],
                "metallicFactor" : 1,
                "roughnessFactor" : 0.21587799489498138
            }
        }
    ],
    "meshes" : [
        {
            "name" : "Mesh.069",
            "primitives" : [
                {
                    "attributes" : {
                        "POSITION" : 0,
                        "NORMAL" : 1
                    },
                    "indices" : 2,
                    "material" : 0
                }
            ]
        }
    ],
    "accessors" : [
        {
            "bufferView" : 0,
            "componentType" : 5126,
            "count" : 19116,
            "max" : [
                28.53277587890625,
                200.00001525878906,
                2.5000357627868652
            ],
            "min" : [
                -2.5000197887420654,
                -9.209630661644042e-06,
                -98.60039520263672
            ],
            "type" : "VEC3"
        },
        {
            "bufferView" : 1,
            "componentType" : 5126,
            "count" : 19116,
            "type" : "VEC3"
        },
        {
            "bufferView" : 2,
            "componentType" : 5123,
            "count" : 53466,
            "type" : "SCALAR"
        }
    ],
    "bufferViews" : [
        {
            "buffer" : 0,
            "byteLength" : 229392,
            "byteOffset" : 0
        },
        {
            "buffer" : 0,
            "byteLength" : 229392,
            "byteOffset" : 229392
        },
        {
            "buffer" : 0,
            "byteLength" : 106932,
            "byteOffset" : 458784
        }
    ],
    "buffers" : [
        {
            "byteLength" : 565716,
            "uri" : "data:application/octet-stream;base64,"
        }
    ]
}
